HIERARCHY
ROOT Hips
{
	OFFSET	0.00	0.00	0.00
	CHANNELS 6 Xposition Yposition Zposition Zrotation Xrotation Yrotation
	JOINT Spine
	{
		OFFSET	 0.000000	 0.053172	 0.012782
		CHANNELS 3 Zrotation Xrotation Yrotation
		JOINT Chest
		{
			OFFSET	 0.000000	 0.115403	 0.003114
			CHANNELS 3 Zrotation Xrotation Yrotation
			JOINT UpperChest
			{
				OFFSET	 0.000000	 0.109921	-0.014956
				CHANNELS 3 Zrotation Xrotation Yrotation
				JOINT Neck
				{
					OFFSET	 0.000000	 0.135086	-0.039168
					CHANNELS 3 Zrotation Xrotation Yrotation
					JOINT Head
					{
						OFFSET	 0.000000	 0.074065	 0.009278
						CHANNELS 3 Zrotation Xrotation Yrotation
						JOINT LeftEye
						{
							OFFSET	 0.013099	 0.061527	 0.024023
							CHANNELS 3 Zrotation Xrotation Yrotation
							End Site
							{
								OFFSET	 0.013099	 0.061527	 0.024023
							}
						}
						JOINT RightEye
						{
							OFFSET	-0.013099	 0.061527	 0.024023
							CHANNELS 3 Zrotation Xrotation Yrotation
							End Site
							{
								OFFSET	-0.013099	 0.061527	 0.024023
							}
						}
					}
				}
				JOINT LeftShoulder
				{
					OFFSET	 0.022837	 0.107922	-0.030603
					CHANNELS 3 Zrotation Xrotation Yrotation
					JOINT LeftUpperArm
					{
						OFFSET	 0.086642	-0.012346	 0.000000
						CHANNELS 3 Zrotation Xrotation Yrotation
						JOINT LeftLowerArm
						{
							OFFSET	 0.224390	 0.000000	 0.000000
							CHANNELS 3 Zrotation Xrotation Yrotation
							JOINT LeftHand
							{
								OFFSET	 0.217424	 0.000002	 0.000381
								CHANNELS 3 Zrotation Xrotation Yrotation
								JOINT LeftIndexProximal
								{
									OFFSET	 0.066067	 0.007457	 0.019860
									CHANNELS 3 Zrotation Xrotation Yrotation
									JOINT LeftIndexIntermediate
									{
										OFFSET	 0.033559	-0.000000	-0.000653
										CHANNELS 3 Zrotation Xrotation Yrotation
										JOINT LeftIndexDistal
										{
											OFFSET	 0.020642	-0.000597	-0.000797
											CHANNELS 3 Zrotation Xrotation Yrotation
											End Site
											{
												OFFSET	 0.020642	-0.000597	-0.000797
											}
										}
									}
								}
								JOINT LeftLittleProximal
								{
									OFFSET	 0.061646	 0.007457	-0.029477
									CHANNELS 3 Zrotation Xrotation Yrotation
									JOINT LeftLittleIntermediate
									{
										OFFSET	 0.031724	 0.000000	 0.000000
										CHANNELS 3 Zrotation Xrotation Yrotation
										JOINT LeftLittleDistal
										{
											OFFSET	 0.018284	 0.000000	 0.000000
											CHANNELS 3 Zrotation Xrotation Yrotation
											End Site
											{
												OFFSET	 0.018284	 0.000000	 0.000000
											}
										}
									}
								}
								JOINT LeftMiddleProximal
								{
									OFFSET	 0.066967	 0.007457	 0.002068
									CHANNELS 3 Zrotation Xrotation Yrotation
									JOINT LeftMiddleIntermediate
									{
										OFFSET	 0.037388	 0.000000	 0.000000
										CHANNELS 3 Zrotation Xrotation Yrotation
										JOINT LeftMiddleDistal
										{
											OFFSET	 0.023065	 0.000000	 0.000000
											CHANNELS 3 Zrotation Xrotation Yrotation
											End Site
											{
												OFFSET	 0.023065	 0.000000	 0.000000
											}
										}
									}
								}
								JOINT LeftRingProximal
								{
									OFFSET	 0.066205	 0.007457	-0.013729
									CHANNELS 3 Zrotation Xrotation Yrotation
									JOINT LeftRingIntermediate
									{
										OFFSET	 0.034682	 0.000000	 0.000000
										CHANNELS 3 Zrotation Xrotation Yrotation
										JOINT LeftRingDistal
										{
											OFFSET	 0.020015	 0.000000	 0.000000
											CHANNELS 3 Zrotation Xrotation Yrotation
											End Site
											{
												OFFSET	 0.020015	 0.000000	 0.000000
											}
										}
									}
								}
								JOINT LeftThumbProximal
								{
									OFFSET	 0.003555	-0.010112	 0.016128
									CHANNELS 3 Zrotation Xrotation Yrotation
									JOINT LeftThumbIntermediate
									{
										OFFSET	 0.035690	-0.002084	 0.030576
										CHANNELS 3 Zrotation Xrotation Yrotation
										JOINT LeftThumbDistal
										{
											OFFSET	 0.022765	-0.000980	 0.017832
											CHANNELS 3 Zrotation Xrotation Yrotation
											End Site
											{
												OFFSET	 0.022765	-0.000980	 0.017832
											}
										}
									}
								}
							}
						}
					}
				}
				JOINT RightShoulder
				{
					OFFSET	-0.022837	 0.107922	-0.030603
					CHANNELS 3 Zrotation Xrotation Yrotation
					JOINT RightUpperArm
					{
						OFFSET	-0.086642	-0.012346	 0.000000
						CHANNELS 3 Zrotation Xrotation Yrotation
						JOINT RightLowerArm
						{
							OFFSET	-0.224390	 0.000000	 0.000000
							CHANNELS 3 Zrotation Xrotation Yrotation
							JOINT RightHand
							{
								OFFSET	-0.217424	 0.000002	 0.000381
								CHANNELS 3 Zrotation Xrotation Yrotation
								JOINT RightIndexProximal
								{
									OFFSET	-0.066067	 0.007457	 0.019860
									CHANNELS 3 Zrotation Xrotation Yrotation
									JOINT RightIndexIntermediate
									{
										OFFSET	-0.033559	-0.000000	-0.000653
										CHANNELS 3 Zrotation Xrotation Yrotation
										JOINT RightIndexDistal
										{
											OFFSET	-0.020642	-0.000597	-0.000797
											CHANNELS 3 Zrotation Xrotation Yrotation
											End Site
											{
												OFFSET	-0.020642	-0.000597	-0.000797
											}
										}
									}
								}
								JOINT RightLittleProximal
								{
									OFFSET	-0.061646	 0.007457	-0.029477
									CHANNELS 3 Zrotation Xrotation Yrotation
									JOINT RightLittleIntermediate
									{
										OFFSET	-0.031724	 0.000000	 0.000000
										CHANNELS 3 Zrotation Xrotation Yrotation
										JOINT RightLittleDistal
										{
											OFFSET	-0.018284	 0.000000	 0.000000
											CHANNELS 3 Zrotation Xrotation Yrotation
											End Site
											{
												OFFSET	-0.018284	 0.000000	 0.000000
											}
										}
									}
								}
								JOINT RightMiddleProximal
								{
									OFFSET	-0.066967	 0.007457	 0.002068
									CHANNELS 3 Zrotation Xrotation Yrotation
									JOINT RightMiddleIntermediate
									{
										OFFSET	-0.037388	 0.000000	 0.000000
										CHANNELS 3 Zrotation Xrotation Yrotation
										JOINT RightMiddleDistal
										{
											OFFSET	-0.023065	 0.000000	 0.000000
											CHANNELS 3 Zrotation Xrotation Yrotation
											End Site
											{
												OFFSET	-0.023065	 0.000000	 0.000000
											}
										}
									}
								}
								JOINT RightRingProximal
								{
									OFFSET	-0.066205	 0.007457	-0.013729
									CHANNELS 3 Zrotation Xrotation Yrotation
									JOINT RightRingIntermediate
									{
										OFFSET	-0.034682	 0.000000	 0.000000
										CHANNELS 3 Zrotation Xrotation Yrotation
										JOINT RightRingDistal
										{
											OFFSET	-0.020015	 0.000000	 0.000000
											CHANNELS 3 Zrotation Xrotation Yrotation
											End Site
											{
												OFFSET	-0.020015	 0.000000	 0.000000
											}
										}
									}
								}
								JOINT RightThumbProximal
								{
									OFFSET	-0.003555	-0.010112	 0.016128
									CHANNELS 3 Zrotation Xrotation Yrotation
									JOINT RightThumbIntermediate
									{
										OFFSET	-0.035690	-0.002084	 0.030576
										CHANNELS 3 Zrotation Xrotation Yrotation
										JOINT RightThumbDistal
										{
											OFFSET	-0.022765	-0.000980	 0.017832
											CHANNELS 3 Zrotation Xrotation Yrotation
											End Site
											{
												OFFSET	-0.022765	-0.000980	 0.017832
											}
										}
									}
								}
							}
						}
					}
				}
			}
		}
	}
	JOINT LeftUpperLeg
	{
		OFFSET	 0.078678	-0.040616	-0.003734
		CHANNELS 3 Zrotation Xrotation Yrotation
		JOINT LeftLowerLeg
		{
			OFFSET	-0.000000	-0.358659	-0.007506
			CHANNELS 3 Zrotation Xrotation Yrotation
			JOINT LeftFoot
			{
				OFFSET	 0.000000	-0.418700	-0.025144
				CHANNELS 3 Zrotation Xrotation Yrotation
				JOINT LeftToes
				{
					OFFSET	 0.000000	-0.063430	 0.111347
					CHANNELS 3 Zrotation Xrotation Yrotation
					End Site
					{
						OFFSET	 0.000000	-0.063430	 0.111347
					}
				}
			}
		}
	}
	JOINT RightUpperLeg
	{
		OFFSET	-0.078678	-0.040616	-0.003734
		CHANNELS 3 Zrotation Xrotation Yrotation
		JOINT RightLowerLeg
		{
			OFFSET	 0.000000	-0.358659	-0.007506
			CHANNELS 3 Zrotation Xrotation Yrotation
			JOINT RightFoot
			{
				OFFSET	 0.000000	-0.418700	-0.025144
				CHANNELS 3 Zrotation Xrotation Yrotation
				JOINT RightToes
				{
					OFFSET	 0.000000	-0.063430	 0.111347
					CHANNELS 3 Zrotation Xrotation Yrotation
					End Site
					{
						OFFSET	 0.000000	-0.063430	 0.111347
					}
				}
			}
		}
	}
}
MOTION
Frames:    4
Frame Time: 0.03333334
 0.062431	 0.917858	 0.003398	 5.102541	 2.212918	-1.419034	 0.635601	 2.291383	 1.102108	 0.567011	 12.577120	 0.038315	 0.000000	 0.000000	 0.000000	 4.105516	-18.388820	 0.807785	 9.184639	-5.083178	-9.012771	 0.000000	 0.000000	 0.000000	 0.000000	 0.000000	 0.000000	 4.980624	-16.918190	 2.422480	-81.710590	 12.339580	 2.812100	 7.149392	 45.174260	-29.467220	-5.741030	 2.363978	 0.758146	 0.000000	 0.000000	 0.000000	 0.000000	 0.000000	 0.000000	 0.000000	 0.000000	 0.000000	 0.000000	 0.000000	 0.000000	 0.000000	 0.000000	 0.000000	 0.000000	 0.000000	 0.000000	 0.000000	 0.000000	 0.000000	 0.000000	 0.000000	 0.000000	 0.000000	 0.000000	 0.000000	 0.000000	 0.000000	 0.000000	 0.000000	 0.000000	 0.000000	 0.000000	 0.000000	 0.000000	 0.000000	 0.000000	 0.000000	 0.000000	 0.000000	 0.000000	 0.000000	 0.000000	 0.000000	-13.483710	-16.605800	-4.444307	 46.944620	 13.801430	 4.348990	 28.797210	 45.000970	 73.606260	 0.728611	 30.701110	-2.088629	 0.000000	 0.000000	 0.000000	 0.000000	 0.000000	 0.000000	 0.000000	 0.000000	 0.000000	 0.000000	 0.000000	 0.000000	 0.000000	 0.000000	 0.000000	 0.000000	 0.000000	 0.000000	 0.000000	 0.000000	 0.000000	 0.000000	 0.000000	 0.000000	 0.000000	 0.000000	 0.000000	 0.000000	 0.000000	 0.000000	 0.000000	 0.000000	 0.000000	 0.000000	 0.000000	 0.000000	 0.000000	 0.000000	 0.000000	 0.000000	 0.000000	 0.000000	 0.000000	 0.000000	 0.000000	 7.177832	-12.863450	 1.458826	 0.904250	 21.771090	-2.532582	 3.226578	-2.865536	 27.121010	 0.000000	 0.000000	 0.000000	-3.995794	-10.292120	-0.632637	 2.089473	 29.735520	-4.262292	-1.810992	-23.335910	-4.007718	 0.000000	 0.000000	 0.000000
 0.061663	 0.917714	 0.003286	 4.887198	 2.116996	-1.461146	 0.709586	 2.363706	 1.233746	 0.635767	 12.646080	 0.032650	 0.000000	 0.000000	 0.000000	 4.135190	-18.518650	 0.818176	 9.201197	-4.828938	-8.564971	 0.000000	 0.000000	 0.000000	 0.000000	 0.000000	 0.000000	 5.092750	-16.937150	 2.305133	-81.783230	 12.395480	 2.692003	 7.565220	 45.936540	-29.692770	-5.120599	 2.277244	 1.364354	 0.000000	 0.000000	 0.000000	 0.000000	 0.000000	 0.000000	 0.000000	 0.000000	 0.000000	 0.000000	 0.000000	 0.000000	 0.000000	 0.000000	 0.000000	 0.000000	 0.000000	 0.000000	 0.000000	 0.000000	 0.000000	 0.000000	 0.000000	 0.000000	 0.000000	 0.000000	 0.000000	 0.000000	 0.000000	 0.000000	 0.000000	 0.000000	 0.000000	 0.000000	 0.000000	 0.000000	 0.000000	 0.000000	 0.000000	 0.000000	 0.000000	 0.000000	 0.000000	 0.000000	 0.000000	-13.321770	-16.640970	-4.225284	 46.740140	 13.696270	 4.233474	 28.730180	 44.880390	 73.726360	 1.347824	 30.812510	-2.424434	 0.000000	 0.000000	 0.000000	 0.000000	 0.000000	 0.000000	 0.000000	 0.000000	 0.000000	 0.000000	 0.000000	 0.000000	 0.000000	 0.000000	 0.000000	 0.000000	 0.000000	 0.000000	 0.000000	 0.000000	 0.000000	 0.000000	 0.000000	 0.000000	 0.000000	 0.000000	 0.000000	 0.000000	 0.000000	 0.000000	 0.000000	 0.000000	 0.000000	 0.000000	 0.000000	 0.000000	 0.000000	 0.000000	 0.000000	 0.000000	 0.000000	 0.000000	 0.000000	 0.000000	 0.000000	 7.525857	-12.648950	 1.502575	 0.904634	 21.559860	-2.564264	 3.105412	-2.604206	 27.210900	 0.000000	 0.000000	 0.000000	-3.739331	-10.432190	-0.600955	 2.107922	 30.173750	-4.252207	-1.863770	-23.174190	-4.147321	 0.000000	 0.000000	 0.000000
 0.060955	 0.917663	 0.002879	 4.731226	 2.062724	-1.492896	 0.753181	 2.406698	 1.351936	 0.674793	 12.686430	 0.028320	 0.000000	 0.000000	 0.000000	 4.165616	-18.630120	 0.826940	 9.208055	-4.566774	-8.110657	 0.000000	 0.000000	 0.000000	 0.000000	 0.000000	 0.000000	 5.187474	-16.942710	 2.189278	-81.841620	 12.479500	 2.553388	 7.920869	 46.653840	-29.810580	-4.465685	 2.160580	 1.860976	 0.000000	 0.000000	 0.000000	 0.000000	 0.000000	 0.000000	 0.000000	 0.000000	 0.000000	 0.000000	 0.000000	 0.000000	 0.000000	 0.000000	 0.000000	 0.000000	 0.000000	 0.000000	 0.000000	 0.000000	 0.000000	 0.000000	 0.000000	 0.000000	 0.000000	 0.000000	 0.000000	 0.000000	 0.000000	 0.000000	 0.000000	 0.000000	 0.000000	 0.000000	 0.000000	 0.000000	 0.000000	 0.000000	 0.000000	 0.000000	 0.000000	 0.000000	 0.000000	 0.000000	 0.000000	-13.180730	-16.661390	-4.015551	 46.567010	 13.592800	 4.116288	 28.718220	 44.863430	 73.806630	 1.732554	 30.992000	-2.705264	 0.000000	 0.000000	 0.000000	 0.000000	 0.000000	 0.000000	 0.000000	 0.000000	 0.000000	 0.000000	 0.000000	 0.000000	 0.000000	 0.000000	 0.000000	 0.000000	 0.000000	 0.000000	 0.000000	 0.000000	 0.000000	 0.000000	 0.000000	 0.000000	 0.000000	 0.000000	 0.000000	 0.000000	 0.000000	 0.000000	 0.000000	 0.000000	 0.000000	 0.000000	 0.000000	 0.000000	 0.000000	 0.000000	 0.000000	 0.000000	 0.000000	 0.000000	 0.000000	 0.000000	 0.000000	 7.754880	-12.500630	 1.529039	 0.952954	 21.335170	-2.709854	 2.966098	-2.279726	 27.422620	 0.000000	 0.000000	 0.000000	-3.571353	-10.462360	-0.575747	 2.166939	 30.309920	-4.356723	-1.835252	-22.911460	-4.121686	 0.000000	 0.000000	 0.000000
 0.060392	 0.917745	 0.002222	 4.635340	 2.043914	-1.509661	 0.775365	 2.424642	 1.455098	 0.692956	 12.702150	 0.025505	 0.000000	 0.000000	 0.000000	 4.178110	-18.717680	 0.830334	 9.187067	-4.320851	-7.745054	 0.000000	 0.000000	 0.000000	 0.000000	 0.000000	 0.000000	 5.237472	-16.938440	 2.080827	-81.883060	 12.564270	 2.425710	 8.222265	 47.263870	-29.855390	-3.880223	 2.035983	 2.237267	 0.000000	 0.000000	 0.000000	 0.000000	 0.000000	 0.000000	 0.000000	 0.000000	 0.000000	 0.000000	 0.000000	 0.000000	 0.000000	 0.000000	 0.000000	 0.000000	 0.000000	 0.000000	 0.000000	 0.000000	 0.000000	 0.000000	 0.000000	 0.000000	 0.000000	 0.000000	 0.000000	 0.000000	 0.000000	 0.000000	 0.000000	 0.000000	 0.000000	 0.000000	 0.000000	 0.000000	 0.000000	 0.000000	 0.000000	 0.000000	 0.000000	 0.000000	 0.000000	 0.000000	 0.000000	-13.091930	-16.668000	-3.838053	 46.457390	 13.497060	 3.998576	 28.731010	 44.894720	 73.884510	 1.974644	 31.155450	-2.918077	 0.000000	 0.000000	 0.000000	 0.000000	 0.000000	 0.000000	 0.000000	 0.000000	 0.000000	 0.000000	 0.000000	 0.000000	 0.000000	 0.000000	 0.000000	 0.000000	 0.000000	 0.000000	 0.000000	 0.000000	 0.000000	 0.000000	 0.000000	 0.000000	 0.000000	 0.000000	 0.000000	 0.000000	 0.000000	 0.000000	 0.000000	 0.000000	 0.000000	 0.000000	 0.000000	 0.000000	 0.000000	 0.000000	 0.000000	 0.000000	 0.000000	 0.000000	 0.000000	 0.000000	 0.000000	 7.857063	-12.440750	 1.541327	 1.084702	 21.185530	-3.045787	 2.832199	-1.943121	 27.757770	 0.000000	 0.000000	 0.000000	-3.509187	-10.390610	-0.561358	 2.202883	 30.136920	-4.449471	-1.754131	-22.589860	-3.985062	 0.000000	 0.000000	 0.000000
